<mxfile host="app.diagrams.net" modified="2020-09-02T02:16:08.361Z" agent="5.0 (Macintosh; Intel Mac OS X 10_15_5) AppleWebKit/537.36 (KHTML, like Gecko) Chrome/84.0.4147.135 Safari/537.36" etag="rh1I6EBZ8MP_DTN9MNJL" version="13.6.6" type="github">
  <diagram id="XJADYiuNlZ3As5ioFesu" name="Page-1">
    <mxGraphModel dx="1261" dy="794" grid="1" gridSize="10" guides="1" tooltips="1" connect="1" arrows="1" fold="1" page="1" pageScale="1" pageWidth="827" pageHeight="1169" math="0" shadow="0">
      <root>
        <mxCell id="0" />
        <mxCell id="1" parent="0" />
        <mxCell id="BUL7bcd7SDM6CIEStGyZ-1" value="" style="rounded=0;whiteSpace=wrap;html=1;fillColor=#eeeeee;strokeColor=#36393d;" vertex="1" parent="1">
          <mxGeometry x="200" y="495" width="450" height="70" as="geometry" />
        </mxCell>
        <mxCell id="BUL7bcd7SDM6CIEStGyZ-2" value="&lt;b&gt;&lt;font style=&quot;font-size: 14px&quot;&gt;数据源&lt;/font&gt;&lt;/b&gt;" style="text;html=1;strokeColor=none;fillColor=none;align=center;verticalAlign=middle;whiteSpace=wrap;rounded=0;" vertex="1" parent="1">
          <mxGeometry x="110" y="517.5" width="60" height="25" as="geometry" />
        </mxCell>
        <mxCell id="BUL7bcd7SDM6CIEStGyZ-3" value="&lt;b&gt;&lt;font style=&quot;font-size: 14px&quot;&gt;数据视图&lt;/font&gt;&lt;/b&gt;" style="text;html=1;strokeColor=none;fillColor=none;align=center;verticalAlign=middle;whiteSpace=wrap;rounded=0;" vertex="1" parent="1">
          <mxGeometry x="110" y="380" width="60" height="25" as="geometry" />
        </mxCell>
        <mxCell id="BUL7bcd7SDM6CIEStGyZ-4" value="&lt;b&gt;&lt;font style=&quot;font-size: 14px&quot;&gt;特征&lt;/font&gt;&lt;/b&gt;" style="text;html=1;strokeColor=none;fillColor=none;align=center;verticalAlign=middle;whiteSpace=wrap;rounded=0;" vertex="1" parent="1">
          <mxGeometry x="110" y="250" width="60" height="25" as="geometry" />
        </mxCell>
        <mxCell id="BUL7bcd7SDM6CIEStGyZ-5" value="维度管理" style="rounded=0;whiteSpace=wrap;html=1;" vertex="1" parent="1">
          <mxGeometry x="240" y="510" width="110" height="40" as="geometry" />
        </mxCell>
        <mxCell id="BUL7bcd7SDM6CIEStGyZ-7" value="" style="shape=flexArrow;endArrow=classic;html=1;endWidth=20;endSize=5.67;" edge="1" parent="1">
          <mxGeometry width="50" height="50" relative="1" as="geometry">
            <mxPoint x="800" y="380" as="sourcePoint" />
            <mxPoint x="880" y="380" as="targetPoint" />
            <Array as="points">
              <mxPoint x="840" y="380" />
            </Array>
          </mxGeometry>
        </mxCell>
        <mxCell id="BUL7bcd7SDM6CIEStGyZ-9" value="Runtime&lt;br&gt;Repositroy" style="rounded=0;whiteSpace=wrap;html=1;fillColor=#fad9d5;strokeColor=#ae4132;" vertex="1" parent="1">
          <mxGeometry x="903" y="227.5" width="57" height="342.5" as="geometry" />
        </mxCell>
        <mxCell id="BUL7bcd7SDM6CIEStGyZ-10" value="数据源管理" style="rounded=0;whiteSpace=wrap;html=1;" vertex="1" parent="1">
          <mxGeometry x="490" y="510" width="120" height="40" as="geometry" />
        </mxCell>
        <mxCell id="BUL7bcd7SDM6CIEStGyZ-11" value="" style="rounded=0;whiteSpace=wrap;html=1;fillColor=#f9f7ed;strokeColor=#36393d;" vertex="1" parent="1">
          <mxGeometry x="200" y="357.5" width="450" height="70" as="geometry" />
        </mxCell>
        <mxCell id="BUL7bcd7SDM6CIEStGyZ-12" value="累积策略管理" style="rounded=0;whiteSpace=wrap;html=1;" vertex="1" parent="1">
          <mxGeometry x="230" y="372.5" width="110" height="40" as="geometry" />
        </mxCell>
        <mxCell id="BUL7bcd7SDM6CIEStGyZ-13" value="data model管理" style="rounded=0;whiteSpace=wrap;html=1;" vertex="1" parent="1">
          <mxGeometry x="370" y="372.5" width="110" height="40" as="geometry" />
        </mxCell>
        <mxCell id="BUL7bcd7SDM6CIEStGyZ-14" value="data store管理" style="rounded=0;whiteSpace=wrap;html=1;" vertex="1" parent="1">
          <mxGeometry x="520" y="372.5" width="110" height="40" as="geometry" />
        </mxCell>
        <mxCell id="BUL7bcd7SDM6CIEStGyZ-15" value="trigger update" style="text;html=1;strokeColor=none;fillColor=none;align=center;verticalAlign=middle;whiteSpace=wrap;rounded=0;" vertex="1" parent="1">
          <mxGeometry x="813" y="337.5" width="40" height="20" as="geometry" />
        </mxCell>
        <mxCell id="BUL7bcd7SDM6CIEStGyZ-16" value="" style="rounded=0;whiteSpace=wrap;html=1;fillColor=#b0e3e6;strokeColor=#0e8088;" vertex="1" parent="1">
          <mxGeometry x="200" y="227.5" width="450" height="70" as="geometry" />
        </mxCell>
        <mxCell id="BUL7bcd7SDM6CIEStGyZ-17" value="特征管理" style="rounded=0;whiteSpace=wrap;html=1;" vertex="1" parent="1">
          <mxGeometry x="250" y="242.5" width="110" height="40" as="geometry" />
        </mxCell>
        <mxCell id="BUL7bcd7SDM6CIEStGyZ-18" value="UDF管理" style="rounded=0;whiteSpace=wrap;html=1;" vertex="1" parent="1">
          <mxGeometry x="480" y="242.5" width="110" height="40" as="geometry" />
        </mxCell>
        <mxCell id="BUL7bcd7SDM6CIEStGyZ-19" value="特征&lt;br&gt;血缘&lt;br&gt;管理" style="rounded=0;whiteSpace=wrap;html=1;fillColor=#cce5ff;strokeColor=#36393d;" vertex="1" parent="1">
          <mxGeometry x="670" y="227.5" width="30" height="342.5" as="geometry" />
        </mxCell>
        <mxCell id="BUL7bcd7SDM6CIEStGyZ-20" value="脚本&lt;br&gt;管理" style="rounded=0;whiteSpace=wrap;html=1;fillColor=#f9f7ed;strokeColor=#36393d;" vertex="1" parent="1">
          <mxGeometry x="710" y="227.5" width="30" height="342.5" as="geometry" />
        </mxCell>
        <mxCell id="BUL7bcd7SDM6CIEStGyZ-21" value="域&lt;br&gt;管理" style="rounded=0;whiteSpace=wrap;html=1;fillColor=#eeeeee;strokeColor=#36393d;" vertex="1" parent="1">
          <mxGeometry x="750" y="227.5" width="30" height="342.5" as="geometry" />
        </mxCell>
      </root>
    </mxGraphModel>
  </diagram>
</mxfile>
